<svg width="17" height="17" viewBox="0 0 17 17" fill="none" xmlns="http://www.w3.org/2000/svg">
    <g clip-path="url(#clip0_2707_3233)">
        <path
            d="M13.3225 0.364502H4.09006C3.18066 0.364502 2.44141 1.11057 2.44141 2.02686V15.9907C2.44141 16.1084 2.5034 16.2175 2.60363 16.2773C2.70453 16.3371 2.82851 16.3385 2.93139 16.2813L8.70629 13.0463L14.4812 16.2813C14.5313 16.3092 14.586 16.3232 14.6414 16.3232C14.6995 16.3232 14.7575 16.3079 14.8089 16.2773C14.9092 16.2175 14.9712 16.1084 14.9712 15.9907V2.02686C14.9712 1.11057 14.2319 0.364502 13.3225 0.364502ZM13.556 6.25193L11.3725 8.45356L11.9799 11.5156C12.0036 11.5615 12.0168 11.6134 12.0168 11.6686C12.0168 11.8521 11.8691 12.001 11.6871 12.001C11.6838 12.001 11.6791 12.0017 11.6739 12.001C11.6191 12.001 11.5637 11.9871 11.5136 11.9592L8.70629 10.3866L5.89896 11.9592C5.78619 12.0217 5.64903 12.0137 5.54417 11.9372C5.44064 11.8607 5.39052 11.7304 5.41558 11.6034L6.04009 8.45356L3.85661 6.25193C3.76692 6.16149 3.73659 6.02717 3.77879 5.90682C3.821 5.78647 3.92783 5.70069 4.05313 5.68606L6.85188 5.37287L8.41744 2.53089C8.53483 2.32011 8.87709 2.32011 8.99447 2.53089L10.56 5.37287L13.3588 5.68606C13.4841 5.70002 13.5916 5.7858 13.6331 5.90682C13.6747 6.02784 13.645 6.16149 13.556 6.25193Z"
            fill="white" />
    </g>
    <path
        d="M4.84743 6.20724C4.83721 6.47023 4.78568 6.7267 4.75612 6.9878C4.72161 7.29255 4.73446 7.60299 4.73638 7.90903C4.73681 7.97861 4.71041 8.16377 4.79807 8.20855C4.85922 8.23978 4.92924 7.73512 4.9338 7.69915C5.01101 7.09067 4.95848 6.45579 4.95848 5.8442C4.95848 5.78215 5.01464 4.88996 4.94367 4.87304C4.87537 4.85676 4.74385 5.00514 4.70923 5.04095C4.52984 5.22651 4.45415 5.44931 4.37114 5.68082C4.25639 6.00087 4.12726 6.31568 4.07994 6.65198C4.03128 6.99779 4.04786 7.35123 4.04786 7.69915C4.04786 7.94767 4.03152 8.19392 4.02565 8.44226C4.01923 8.71367 3.96292 8.98042 3.95902 9.25231C3.9584 9.29515 3.96716 9.57997 3.97259 9.56998C4.41679 8.75314 4.94197 7.97302 5.47672 7.20449C5.95951 6.51064 6.42965 5.81477 6.93767 5.13625C7.34743 4.58896 7.73891 4.01895 8.04571 3.41631C8.1724 3.16745 8.02543 3.6212 8.0161 3.64775C7.7624 4.36997 7.3643 5.04607 7.05612 5.7489C6.69303 6.57697 6.39809 7.42539 6.16771 8.2925C6.05735 8.70788 5.90768 9.14418 5.87034 9.57338C5.85735 9.72269 5.93762 9.27987 5.98509 9.13659C6.13432 8.68618 6.41923 8.28027 6.66867 7.87273C6.95022 7.41273 7.20558 6.94597 7.46578 6.47613C7.76008 5.94472 8.07822 5.42721 8.36406 4.89119C8.45349 4.7235 8.60743 4.54511 8.65033 4.36024C8.68279 4.22032 8.79551 4.10747 8.8675 3.98244C8.97355 3.79824 9.11756 3.63568 9.1735 3.42992C9.21289 3.28507 9.2631 3.13561 9.28456 2.98519C9.28925 2.95224 9.279 2.86635 9.30677 2.88762C9.33352 2.90812 9.22355 3.2754 9.21792 3.29719C9.14492 3.58007 9.0896 3.83919 9.0896 4.13106C9.0896 4.35981 9.08365 4.58746 9.02297 4.81064C8.90916 5.22919 8.75668 5.63509 8.6676 6.05976C8.57891 6.4826 8.4455 6.91732 8.4455 7.35085C8.4455 7.3541 8.48535 7.15001 8.49486 7.11033C8.60453 6.65234 8.79818 6.25177 9.04394 5.84306C9.56437 4.97759 10.0656 4.09837 10.5111 3.19848C10.5579 3.10386 10.572 3.01781 10.6048 2.92393C10.6241 2.86871 10.6443 3.0361 10.6443 3.0941C10.6443 3.7262 10.7102 4.3929 10.5839 5.01599C10.5049 5.40517 10.4533 5.78074 10.4222 6.17548C10.3999 6.4588 10.3168 6.7087 10.2495 6.98326C10.2213 7.09791 10.2004 7.21626 10.1828 7.33269C10.1699 7.41855 10.2332 7.17762 10.2396 7.15798C10.5269 6.27045 10.7348 5.36382 10.9873 4.46802C11.0583 4.21622 11.1662 3.97833 11.2243 3.7249C11.2551 3.59024 11.2737 3.73874 11.2785 3.79297C11.3214 4.2766 11.4372 4.74383 11.5179 5.22248C11.5986 5.7009 11.6116 6.17757 11.6487 6.65879C11.6643 6.86111 11.8106 7.00869 11.8437 7.19882C11.8474 7.22034 11.8896 7.30249 11.8647 7.26803C11.8454 7.24154 11.8321 7.21689 11.8215 7.18747"
        stroke="white" stroke-width="3" stroke-linecap="round" />
    <path
        d="M8.77039 2.04461C8.62988 2.04461 8.47039 2.03244 8.47039 2.21154C8.47039 2.40326 8.52232 2.49908 8.64731 2.65265C8.86488 2.91995 9.07291 3.16239 9.40373 3.29967C9.69614 3.42102 10.014 3.48586 10.3243 3.55313C10.6198 3.6172 10.9352 3.63956 11.2217 3.73225C11.4592 3.8091 11.6483 3.95938 11.8576 4.08927C12.1018 4.24087 12.2913 4.50957 12.4243 4.75092C12.5949 5.06045 12.7363 5.41281 12.9679 5.68796C13.1119 5.85901 13.2291 6.05148 13.3384 6.2436C13.3893 6.33309 13.4525 6.4963 13.4551 6.5994C13.4591 6.75881 13.4551 6.91883 13.4551 7.07828C13.4551 7.27589 13.2935 7.44192 13.2935 7.63758C13.2935 7.72691 13.2558 7.83137 13.1974 7.90077C13.0852 8.034 13.0367 8.12207 12.9987 8.28826C12.9685 8.42004 12.8806 8.51566 12.8281 8.64041C12.7227 8.89083 12.4718 9.0912 12.3217 9.31912C12.2476 9.43162 12.1903 9.54929 12.1256 9.6664C12.0655 9.77503 11.9625 9.86612 11.9191 9.98199C11.8766 10.0957 11.8858 10.2204 11.8858 10.339C11.8858 10.4986 11.8858 10.6583 11.8858 10.8179C11.8858 11.0444 11.7715 11.242 11.7127 11.4588C11.6653 11.634 11.6089 11.8094 11.6089 11.9913C11.6089 12.0453 11.5423 12.1457 11.4832 12.1193C11.3412 12.0557 11.1448 12.0314 11.0191 11.9438C10.8778 11.8453 10.7585 11.7226 10.6114 11.6294C10.5186 11.5706 10.4355 11.5003 10.3448 11.4418C10.2642 11.3898 10.1959 11.4027 10.1102 11.3772C10.0142 11.3487 9.90111 11.3441 9.80117 11.3272C9.71025 11.3119 9.62929 11.2346 9.54348 11.2346C9.44767 11.2346 9.38245 11.1886 9.30117 11.1457C9.16412 11.0733 9.04862 11.0592 8.89091 11.0592C8.76612 11.0592 8.64133 11.0592 8.51654 11.0592C8.31186 11.0592 8.04554 11.0431 7.855 11.1176C7.61398 11.212 7.35772 11.2627 7.12165 11.365C6.93231 11.4471 6.72679 11.5022 6.52934 11.5636C6.42522 11.596 6.33885 11.6612 6.24985 11.7196C6.08995 11.8245 5.91815 11.9109 5.74087 11.9864C5.64126 12.0289 5.4487 12.0098 5.34471 11.9974C5.18327 11.9782 5.03185 11.8674 4.9088 11.7708C4.76246 11.6559 4.75496 11.5029 4.75496 11.3345C4.75496 11.1564 4.72185 11.043 4.87547 10.9227C5.10498 10.7429 5.33096 10.5745 5.58702 10.4316C5.8094 10.3076 5.98026 10.2476 6.24215 10.2476C6.68042 10.2476 7.13114 10.2776 7.56781 10.2428C7.89717 10.2164 8.17929 10.0145 8.45244 9.85527C8.77486 9.66727 9.05952 9.46416 9.31014 9.19361C9.57058 8.91247 9.7763 8.60613 9.89605 8.24927C9.95953 8.06008 9.98851 7.86348 10.0409 7.67169C10.0779 7.53648 10.1306 7.40376 10.1499 7.26471C10.1527 7.24437 10.1465 7.13555 10.1884 7.13555C10.2369 7.13555 10.0327 7.40517 10.0307 7.40728C9.78121 7.66537 9.47077 7.86029 9.16527 8.05187C8.57525 8.42187 7.91947 8.75917 7.40371 9.22408C7.39522 9.23172 6.92442 9.74325 7.05242 9.798C7.22726 9.87277 7.51874 9.78225 7.68576 9.74073C8.21754 9.60852 8.75751 9.44418 9.25629 9.22408C9.60122 9.07187 9.85287 8.88006 10.1217 8.63432C10.237 8.52891 10.3673 8.45079 10.5243 8.41499C10.8473 8.3413 11.2969 8.43136 11.3499 8.79516C11.3826 9.01967 11.351 9.27081 11.2576 9.47753C11.17 9.67138 10.9948 9.92227 10.7999 10.038C10.7285 10.0805 10.6501 10.1178 10.5755 10.155C10.525 10.1802 10.3528 10.2043 10.3396 10.2647C10.3159 10.3737 10.3396 10.5108 10.3396 10.6217C10.3396 10.8571 10.3927 11.1442 10.2371 11.3443C10.1735 11.426 10.104 11.4756 10.0512 11.5648C10.0093 11.6356 9.98432 11.7259 9.92425 11.783"
        stroke="white" stroke-width="3" stroke-linecap="round" />
    <defs>
        <clipPath id="clip0_2707_3233">
            <rect width="15.8271" height="15.9587" fill="white" transform="translate(0.792969 0.364502)" />
        </clipPath>
    </defs>
</svg>