<svg width="37" height="33" viewBox="0 0 37 33" fill="none" xmlns="http://www.w3.org/2000/svg">
    <g filter="url(#filter0_d_0_1)">
        <ellipse cx="18.2109" cy="14.2442" rx="14.2109" ry="12.2442" fill="white" />
    </g>
    <path
        d="M21.3327 18C21.6863 18 22.0254 18.1405 22.2755 18.3906C22.5255 18.6406 22.666 18.9798 22.666 19.3334C22.666 19.687 22.5255 20.0261 22.2755 20.2762C22.0254 20.5262 21.6863 20.6667 21.3327 20.6667C20.9791 20.6667 20.6399 20.5262 20.3899 20.2762C20.1398 20.0261 19.9993 19.687 19.9993 19.3334C19.9993 18.5934 20.5927 18 21.3327 18ZM10.666 7.33337H12.846L13.4727 8.66671H23.3327C23.5095 8.66671 23.6791 8.73695 23.8041 8.86197C23.9291 8.98699 23.9993 9.15656 23.9993 9.33337C23.9993 9.44671 23.966 9.56004 23.9193 9.66671L21.5327 13.98C21.306 14.3867 20.866 14.6667 20.366 14.6667H15.3993L14.7993 15.7534L14.7793 15.8334C14.7793 15.8776 14.7969 15.92 14.8282 15.9512C14.8594 15.9825 14.9018 16 14.946 16H22.666V17.3334H14.666C14.3124 17.3334 13.9733 17.1929 13.7232 16.9428C13.4732 16.6928 13.3327 16.3537 13.3327 16C13.3327 15.7667 13.3927 15.5467 13.4927 15.36L14.3993 13.7267L11.9993 8.66671H10.666V7.33337ZM14.666 18C15.0196 18 15.3588 18.1405 15.6088 18.3906C15.8589 18.6406 15.9993 18.9798 15.9993 19.3334C15.9993 19.687 15.8589 20.0261 15.6088 20.2762C15.3588 20.5262 15.0196 20.6667 14.666 20.6667C14.3124 20.6667 13.9733 20.5262 13.7232 20.2762C13.4732 20.0261 13.3327 19.687 13.3327 19.3334C13.3327 18.5934 13.926 18 14.666 18ZM20.666 13.3334L22.5193 10H14.0927L15.666 13.3334H20.666Z"
        fill="black" />
    <defs>
        <filter id="filter0_d_0_1" x="0" y="0" width="36.4219" height="32.4884" filterUnits="userSpaceOnUse"
            color-interpolation-filters="sRGB">
            <feFlood flood-opacity="0" result="BackgroundImageFix" />
            <feColorMatrix in="SourceAlpha" type="matrix" values="0 0 0 0 0 0 0 0 0 0 0 0 0 0 0 0 0 0 127 0"
                result="hardAlpha" />
            <feOffset dy="2" />
            <feGaussianBlur stdDeviation="2" />
            <feComposite in2="hardAlpha" operator="out" />
            <feColorMatrix type="matrix" values="0 0 0 0 0 0 0 0 0 0 0 0 0 0 0 0 0 0 0.1 0" />
            <feBlend mode="normal" in2="BackgroundImageFix" result="effect1_dropShadow_0_1" />
            <feBlend mode="normal" in="SourceGraphic" in2="effect1_dropShadow_0_1" result="shape" />
        </filter>
    </defs>
</svg>