<svg width="17" height="16" viewBox="0 0 17 16" fill="none" xmlns="http://www.w3.org/2000/svg">
    <path fill-rule="evenodd" clip-rule="evenodd"
        d="M8.51061 1.25575C4.7886 1.25575 1.77149 4.06689 1.77149 7.53482C1.77025 8.46004 1.98913 9.374 2.41238 10.211L1.78564 13.0598C1.76333 13.1615 1.76843 13.2668 1.8005 13.3662C1.83256 13.4656 1.89058 13.5561 1.96938 13.6295C2.04817 13.7029 2.14526 13.757 2.25198 13.7869C2.35869 13.8167 2.47169 13.8215 2.58086 13.8007L5.6384 13.2168C6.51044 13.5998 7.48492 13.8133 8.51061 13.8133C12.2326 13.8133 15.2497 11.0028 15.2497 7.5342C15.2497 4.06689 12.2326 1.25513 8.51061 1.25513"
        fill="black" />
</svg>