<svg width="37" height="33" viewBox="0 0 37 33" fill="none" xmlns="http://www.w3.org/2000/svg">
    <g filter="url(#filter0_d_0_1)">
        <ellipse cx="18.2109" cy="14.2442" rx="14.2109" ry="12.2442" fill="white" />
    </g>
    <path
        d="M21.125 8.125C19.8125 8.125 18.6712 8.71688 18 9.70875C17.3288 8.71688 16.1875 8.125 14.875 8.125C13.8808 8.12616 12.9276 8.52162 12.2246 9.22463C11.5216 9.92764 11.1262 10.8808 11.125 11.875C11.125 13.7 12.2625 15.5994 14.5062 17.5194C15.5344 18.3955 16.645 19.1699 17.8225 19.8319C17.8771 19.8612 17.9381 19.8765 18 19.8765C18.0619 19.8765 18.1229 19.8612 18.1775 19.8319C19.355 19.1699 20.4656 18.3955 21.4937 17.5194C23.7375 15.5994 24.875 13.7 24.875 11.875C24.8738 10.8808 24.4784 9.92764 23.7754 9.22463C23.0724 8.52162 22.1192 8.12616 21.125 8.125ZM18 19.0694C16.9744 18.4775 11.875 15.3575 11.875 11.875C11.8758 11.0796 12.1922 10.317 12.7546 9.75459C13.317 9.19216 14.0796 8.87583 14.875 8.875C16.1425 8.875 17.2069 9.55187 17.6531 10.6419C17.6814 10.7107 17.7294 10.7695 17.7912 10.8109C17.853 10.8523 17.9256 10.8744 18 10.8744C18.0744 10.8744 18.147 10.8523 18.2088 10.8109C18.2706 10.7695 18.3186 10.7107 18.3469 10.6419C18.7931 9.55187 19.8575 8.875 21.125 8.875C21.9204 8.87583 22.683 9.19216 23.2454 9.75459C23.8078 10.317 24.1242 11.0796 24.125 11.875C24.125 15.3575 19.0256 18.4775 18 19.0694Z"
        fill="black" />
    <defs>
        <filter id="filter0_d_0_1" x="0" y="0" width="36.4219" height="32.4884" filterUnits="userSpaceOnUse"
            color-interpolation-filters="sRGB">
            <feFlood flood-opacity="0" result="BackgroundImageFix" />
            <feColorMatrix in="SourceAlpha" type="matrix" values="0 0 0 0 0 0 0 0 0 0 0 0 0 0 0 0 0 0 127 0"
                result="hardAlpha" />
            <feOffset dy="2" />
            <feGaussianBlur stdDeviation="2" />
            <feComposite in2="hardAlpha" operator="out" />
            <feColorMatrix type="matrix" values="0 0 0 0 0 0 0 0 0 0 0 0 0 0 0 0 0 0 0.1 0" />
            <feBlend mode="normal" in2="BackgroundImageFix" result="effect1_dropShadow_0_1" />
            <feBlend mode="normal" in="SourceGraphic" in2="effect1_dropShadow_0_1" result="shape" />
        </filter>
    </defs>
</svg>