<svg width="17" height="16" viewBox="0 0 17 16" fill="none" xmlns="http://www.w3.org/2000/svg">
    <path
        d="M15.1639 5.53338C15.1639 9.65402 8.6065 12.9894 8.32725 13.1271C8.25365 13.164 8.17138 13.1833 8.0878 13.1833C8.00422 13.1833 7.92195 13.164 7.84835 13.1271C7.5691 12.9894 1.01172 9.65402 1.01172 5.53338C1.01289 4.56575 1.42596 3.63806 2.16031 2.95385C2.89466 2.26963 3.89031 1.88476 4.92884 1.88367C6.23349 1.88367 7.37577 2.4064 8.0878 3.28998C8.79983 2.4064 9.94211 1.88367 11.2468 1.88367C12.2853 1.88476 13.2809 2.26963 14.0153 2.95385C14.7496 3.63806 15.1627 4.56575 15.1639 5.53338Z"
        fill="black" />
</svg>