<svg width="49" height="48" viewBox="0 0 49 48" fill="none" xmlns="http://www.w3.org/2000/svg">
    <g clip-path="url(#clip0_2730_319)">
        <path
            d="M37.4229 0H11.9229C5.70965 0 0.672852 5.0368 0.672852 11.25V36.75C0.672852 42.9632 5.70965 48 11.9229 48H37.4229C43.6361 48 48.6729 42.9632 48.6729 36.75V11.25C48.6729 5.0368 43.6361 0 37.4229 0Z"
            fill="url(#paint0_radial_2730_319)" />
        <path
            d="M37.4229 0H11.9229C5.70965 0 0.672852 5.0368 0.672852 11.25V36.75C0.672852 42.9632 5.70965 48 11.9229 48H37.4229C43.6361 48 48.6729 42.9632 48.6729 36.75V11.25C48.6729 5.0368 43.6361 0 37.4229 0Z"
            fill="url(#paint1_radial_2730_319)" />
        <path
            d="M24.6741 10C20.872 10 20.3947 10.0167 18.9015 10.0846C17.4111 10.1529 16.3937 10.3888 15.5036 10.735C14.5826 11.0925 13.8016 11.5709 13.0235 12.3493C12.2446 13.1276 11.7663 13.9086 11.4076 14.8291C11.0604 15.7195 10.8242 16.7373 10.7571 18.227C10.6904 19.7204 10.6729 20.1978 10.6729 24C10.6729 27.8022 10.6897 28.2779 10.7574 29.7712C10.826 31.2616 11.0619 32.279 11.4079 33.1691C11.7657 34.09 12.2441 34.871 13.0225 35.6491C13.8005 36.428 14.5815 36.9075 15.5017 37.265C16.3926 37.6112 17.4101 37.8471 18.9002 37.9154C20.3936 37.9833 20.8705 38 24.6724 38C28.475 38 28.9507 37.9833 30.4439 37.9154C31.9344 37.8471 32.9529 37.6112 33.8437 37.265C34.7642 36.9075 35.5441 36.428 36.322 35.6491C37.1008 34.871 37.579 34.09 37.9379 33.1695C38.282 32.279 38.5183 31.2613 38.5883 29.7714C38.6554 28.2782 38.6729 27.8022 38.6729 24C38.6729 20.1978 38.6554 19.7207 38.5883 18.2273C38.5183 16.7369 38.282 15.7196 37.9379 14.8295C37.579 13.9086 37.1008 13.1276 36.322 12.3493C35.5433 11.5706 34.7645 11.0923 33.8429 10.7351C32.9504 10.3888 31.9324 10.1527 30.442 10.0846C28.9486 10.0167 28.4732 10 24.6698 10H24.6741ZM23.4182 12.5229C23.791 12.5224 24.2069 12.5229 24.6741 12.5229C28.4123 12.5229 28.8552 12.5364 30.3314 12.6034C31.6964 12.6659 32.4373 12.8939 32.9308 13.0856C33.5841 13.3392 34.0499 13.6426 34.5396 14.1328C35.0296 14.6228 35.3329 15.0894 35.5873 15.7427C35.7789 16.2355 36.0073 16.9764 36.0694 18.3414C36.1365 19.8173 36.151 20.2605 36.151 23.9968C36.151 27.7331 36.1365 28.1764 36.0694 29.6522C36.007 31.0171 35.7789 31.758 35.5873 32.251C35.3336 32.9043 35.0296 33.3695 34.5396 33.8593C34.0496 34.3493 33.5844 34.6525 32.9308 34.9063C32.4378 35.0988 31.6964 35.3263 30.3314 35.3887C28.8555 35.4558 28.4123 35.4704 24.6741 35.4704C20.9358 35.4704 20.4927 35.4558 19.017 35.3887C17.652 35.3257 16.9111 35.0977 16.4172 34.906C15.764 34.6522 15.2972 34.349 14.8072 33.859C14.3172 33.369 14.014 32.9035 13.7596 32.2498C13.5679 31.7569 13.3396 31.016 13.2774 29.651C13.2104 28.1752 13.1969 27.7319 13.1969 23.9933C13.1969 20.2548 13.2104 19.8138 13.2774 18.3379C13.3399 16.9729 13.5679 16.232 13.7596 15.7385C14.0134 15.0852 14.3172 14.6186 14.8073 14.1286C15.2973 13.6386 15.764 13.3352 16.4173 13.0809C16.9108 12.8885 17.652 12.661 19.017 12.5982C20.3085 12.5399 20.809 12.5224 23.4182 12.5194V12.5229ZM32.1473 14.8475C31.2198 14.8475 30.4673 15.5992 30.4673 16.5269C30.4673 17.4544 31.2198 18.2069 32.1473 18.2069C33.0748 18.2069 33.8273 17.4544 33.8273 16.5269C33.8273 15.5994 33.0748 14.8475 32.1473 14.8475ZM24.6741 16.8104C20.7037 16.8104 17.4846 20.0295 17.4846 24C17.4846 27.9705 20.7037 31.1881 24.6741 31.1881C28.6447 31.1881 31.8627 27.9705 31.8627 24C31.8627 20.0296 28.6447 16.8104 24.6741 16.8104ZM24.6741 19.3333C27.2514 19.3333 29.3409 21.4225 29.3409 24C29.3409 26.5772 27.2514 28.6667 24.6741 28.6667C22.0967 28.6667 20.0075 26.5772 20.0075 24C20.0075 21.4225 22.0967 19.3333 24.6741 19.3333Z"
            fill="white" />
    </g>
    <defs>
        <radialGradient id="paint0_radial_2730_319" cx="0" cy="0" r="1" gradientUnits="userSpaceOnUse"
            gradientTransform="translate(13.4229 51.6969) rotate(-90) scale(47.5716 44.2453)">
            <stop stop-color="#FFDD55" />
            <stop offset="0.1" stop-color="#FFDD55" />
            <stop offset="0.5" stop-color="#FF543E" />
            <stop offset="1" stop-color="#C837AB" />
        </radialGradient>
        <radialGradient id="paint1_radial_2730_319" cx="0" cy="0" r="1" gradientUnits="userSpaceOnUse"
            gradientTransform="translate(-7.36734 3.45769) rotate(78.681) scale(21.2648 87.654)">
            <stop stop-color="#3771C8" />
            <stop offset="0.128" stop-color="#3771C8" />
            <stop offset="1" stop-color="#6600FF" stop-opacity="0" />
        </radialGradient>
        <clipPath id="clip0_2730_319">
            <rect x="0.672852" width="48.2223" height="48" rx="24" fill="white" />
        </clipPath>
    </defs>
</svg>