<svg width="18" height="16" viewBox="0 0 18 16" fill="none" xmlns="http://www.w3.org/2000/svg">
    <g opacity="0.2">
        <path
            d="M13.0804 11.078L15.9909 13.9327L15.0293 14.876L12.1195 12.0207C11.0368 12.8722 9.69011 13.3353 8.30247 13.3334C4.92647 13.3334 2.18652 10.6454 2.18652 7.33337C2.18652 4.02137 4.92647 1.33337 8.30247 1.33337C11.6785 1.33337 14.4184 4.02137 14.4184 7.33337C14.4204 8.69471 13.9483 10.0159 13.0804 11.078ZM11.7172 10.5834C12.5796 9.7133 13.0613 8.54699 13.0593 7.33337C13.0593 4.75471 10.9303 2.66671 8.30247 2.66671C5.67397 2.66671 3.54562 4.75471 3.54562 7.33337C3.54562 9.91137 5.67397 12 8.30247 12C9.53955 12.002 10.7284 11.5294 11.6153 10.6834L11.7172 10.5834Z"
            fill="black" />
    </g>
</svg>