<svg width="17" height="16" viewBox="0 0 17 16" fill="none" xmlns="http://www.w3.org/2000/svg">
    <g clip-path="url(#clip0_2707_3280)">
        <path
            d="M11.3219 7.53483C11.3219 8.15932 11.0557 8.75823 10.5817 9.19982C10.1078 9.6414 9.465 9.88948 8.79475 9.88948C8.1245 9.88948 7.48171 9.6414 7.00777 9.19982C6.53383 8.75823 6.26758 8.15932 6.26758 7.53483C6.26758 6.91033 6.53383 6.31142 7.00777 5.86984C7.48171 5.42825 8.1245 5.18018 8.79475 5.18018C9.465 5.18018 10.1078 5.42825 10.5817 5.86984C11.0557 6.31142 11.3219 6.91033 11.3219 7.53483Z"
            fill="black" />
        <path
            d="M0.707031 7.53485C0.707031 7.53485 3.73964 2.35461 8.79398 2.35461C13.8483 2.35461 16.8809 7.53485 16.8809 7.53485C16.8809 7.53485 13.8483 12.7151 8.79398 12.7151C3.73964 12.7151 0.707031 7.53485 0.707031 7.53485ZM8.79398 10.8314C9.73233 10.8314 10.6322 10.484 11.2958 9.86583C11.9593 9.24762 12.332 8.40914 12.332 7.53485C12.332 6.66056 11.9593 5.82208 11.2958 5.20386C10.6322 4.58565 9.73233 4.23834 8.79398 4.23834C7.85563 4.23834 6.95572 4.58565 6.29221 5.20386C5.6287 5.82208 5.25594 6.66056 5.25594 7.53485C5.25594 8.40914 5.6287 9.24762 6.29221 9.86583C6.95572 10.484 7.85563 10.8314 8.79398 10.8314Z"
            fill="black" />
    </g>
    <defs>
        <clipPath id="clip0_2707_3280">
            <rect width="16.1739" height="15.0698" fill="white" transform="translate(0.707031)" />
        </clipPath>
    </defs>
</svg>