<svg width="50" height="48" viewBox="0 0 50 48" fill="none" xmlns="http://www.w3.org/2000/svg">
    <g filter="url(#filter0_i_2730_315)">
        <ellipse cx="25.0428" cy="24" rx="24.1112" ry="24" fill="#FF494F" />
    </g>
    <g filter="url(#filter1_i_2730_315)">
        <path
            d="M25.0429 13.44C10.825 13.44 10.5762 14.6386 10.5762 24C10.5762 33.3614 10.825 34.56 25.0429 34.56C39.2607 34.56 39.5096 33.3614 39.5096 24C39.5096 14.6386 39.2607 13.44 25.0429 13.44ZM29.6795 24.4581L23.1839 27.3326C22.6154 27.5822 22.1495 27.3024 22.1495 26.7072V21.2928C22.1495 20.699 22.6154 20.4178 23.1839 20.6674L29.6795 23.5419C30.248 23.7943 30.248 24.2057 29.6795 24.4581Z"
            fill="white" />
    </g>
    <defs>
        <filter id="filter0_i_2730_315" x="-1.06836" y="0" width="50.2227" height="52" filterUnits="userSpaceOnUse"
            color-interpolation-filters="sRGB">
            <feFlood flood-opacity="0" result="BackgroundImageFix" />
            <feBlend mode="normal" in="SourceGraphic" in2="BackgroundImageFix" result="shape" />
            <feColorMatrix in="SourceAlpha" type="matrix" values="0 0 0 0 0 0 0 0 0 0 0 0 0 0 0 0 0 0 127 0"
                result="hardAlpha" />
            <feOffset dx="-2" dy="4" />
            <feGaussianBlur stdDeviation="2" />
            <feComposite in2="hardAlpha" operator="arithmetic" k2="-1" k3="1" />
            <feColorMatrix type="matrix" values="0 0 0 0 0 0 0 0 0 0 0 0 0 0 0 0 0 0 0.25 0" />
            <feBlend mode="normal" in2="shape" result="effect1_innerShadow_2730_315" />
        </filter>
        <filter id="filter1_i_2730_315" x="9.57617" y="11.44" width="29.9336" height="23.12"
            filterUnits="userSpaceOnUse" color-interpolation-filters="sRGB">
            <feFlood flood-opacity="0" result="BackgroundImageFix" />
            <feBlend mode="normal" in="SourceGraphic" in2="BackgroundImageFix" result="shape" />
            <feColorMatrix in="SourceAlpha" type="matrix" values="0 0 0 0 0 0 0 0 0 0 0 0 0 0 0 0 0 0 127 0"
                result="hardAlpha" />
            <feOffset dx="-1" dy="-2" />
            <feGaussianBlur stdDeviation="2" />
            <feComposite in2="hardAlpha" operator="arithmetic" k2="-1" k3="1" />
            <feColorMatrix type="matrix" values="0 0 0 0 0 0 0 0 0 0 0 0 0 0 0 0 0 0 0.25 0" />
            <feBlend mode="normal" in2="shape" result="effect1_innerShadow_2730_315" />
        </filter>
    </defs>
</svg>