<svg width="250" height="250" viewBox="0 0 250 250" fill="none" xmlns="http://www.w3.org/2000/svg">
    <circle cx="125" cy="125" r="125" fill="#FFFFFF" />
    <path
        d="M54.6 198.6C53 197.8 51.7333 196.667 50.8 195.2C50 193.733 49.6 192.267 49.6 190.8C49.6 189.333 50 188.133 50.8 187.2C51.2 186.667 51.6667 186.333 52.2 186.2C52.8667 186.2 53.0667 186.533 52.8 187.2C52.4 189.2 53.3333 191.067 55.6 192.8C57.8667 194.533 59.9333 195.667 61.8 196.2C63.8 196.6 65.8 196.8 67.8 196.8C71.9333 196.8 75.6 196.2 78.8 195C83.6 193.4 88.3333 190.067 93 185C97.8 180.067 102.267 174.533 106.4 168.4C109.867 163.067 113.267 157.133 116.6 150.6C119.933 144.067 123.267 137.333 126.6 130.4C123.933 130.133 120.667 129.867 116.8 129.6C112.933 129.333 108.933 129.2 104.8 129.2C99.4667 129.2 94.3333 129.667 89.4 130.6C84.4667 131.4 80.9333 133.133 78.8 135.8C77.7333 137.267 77.2 138.867 77.2 140.6C77.2 141 77.2 141.4 77.2 141.8C77.3333 142.2 77.4667 142.6 77.6 143C77.6 143.133 77.6 143.267 77.6 143.4C77.7333 143.4 77.8 143.467 77.8 143.6C77.8 143.867 77.6 144 77.2 144C76.5333 144 76.1333 143.667 76 143C75.8667 142.6 75.7333 142.067 75.6 141.4C75.4667 140.733 75.4 140.067 75.4 139.4C75.4 137.533 75.8 135.733 76.6 134C78.7333 129.733 82.0667 126.8 86.6 125.2C91.1333 123.6 96.0667 122.8 101.4 122.8C106.333 122.8 111.267 123.2 116.2 124C121.133 124.8 125.267 125.533 128.6 126.2C133 117.667 137.533 109.267 142.2 101C147 92.7333 152.2 85.3333 157.8 78.8C163.4 72.2667 169.6 67.2667 176.4 63.8C169.867 63 163.133 61.9333 156.2 60.6C149.4 59.1333 143.667 58 139 57.2C136.067 56.6667 132.733 56.3333 129 56.2C125.267 55.9333 121.333 55.8 117.2 55.8C109.867 55.8 102.533 56.2667 95.2 57.2C87.8667 58 82 59.4 77.6 61.4C69.8667 64.8667 63.2 69.6667 57.6 75.8C52 81.8 49.2 89.3333 49.2 98.4C49.2 102.133 49.8 105.333 51 108C52.3333 110.533 54 112.467 56 113.8C58.2667 115.133 60.6 115.8 63 115.8C65.9333 115.8 68.9333 114.933 72 113.2C75.0667 111.333 77.7333 108.667 80 105.2C81.0667 103.467 82.0667 100.933 83 97.6C84.0667 94.2667 84.6 90.8667 84.6 87.4C84.6 85.5333 84.4 83.7333 84 82C83.7333 80.2667 83.1333 78.7333 82.2 77.4C81.9333 76.8667 81.8 76.6 81.8 76.6C81.8 76.2 82 76 82.4 76C82.9333 76 83.4 76.3333 83.8 77C84.4667 77.9333 85.1333 79.4 85.8 81.4C86.6 83.2667 87.1333 85 87.4 86.6C87.5333 87.4 87.6 88.2 87.6 89C87.7333 89.8 87.8 90.6 87.8 91.4C87.8 94.0667 87.4667 96.8 86.8 99.6C86.1333 102.267 85.0667 104.733 83.6 107C81.4667 110.6 78.6 113.333 75 115.2C71.4 116.933 67.6667 117.8 63.8 117.8C60.7333 117.8 57.8 117.2 55 116C50.8667 114 47.8 111.133 45.8 107.4C43.9333 103.667 43 99.6 43 95.2C43 92.2667 43.3333 89.3333 44 86.4C44.8 83.3333 45.8667 80.4 47.2 77.6C49.4667 72.6667 52.6 68.3333 56.6 64.6C60.6 60.8667 64.6 57.9333 68.6 55.8C75.2667 52.2 81.9333 49.6667 88.6 48.2C95.4 46.7333 102.267 46 109.2 46C114.933 46 120.733 46.4 126.6 47.2C132.467 48 138.4 49.1333 144.4 50.6C151.2 52.2 158.2 54 165.4 56C168.067 56.8 171.267 57.6667 175 58.6C178.733 59.5333 182.467 60.2 186.2 60.6C186.733 60.6 187.2 60.6 187.6 60.6C188 60.4667 188.467 60.4 189 60.4C190.333 60.4 191.8 60.6 193.4 61C195.933 60.8667 198.4 60.4 200.8 59.6C203.2 58.8 205.133 57.3333 206.6 55.2C207.133 54.4 207.4 53.6667 207.4 53C207.4 52.3333 207.333 51.7333 207.2 51.2C207.067 50.5333 207.2 50 207.6 49.6C207.867 49.3333 208.2 49.2 208.6 49.2C209.267 49.2 209.8 49.6 210.2 50.4C210.333 50.8 210.4 51.4667 210.4 52.4C210.4 52.8 210.4 53.2667 210.4 53.8C210.4 54.2 210.267 54.6 210 55C209.067 57.6667 207.267 59.8 204.6 61.4C201.933 62.8667 199.267 63.8 196.6 64.2C195.533 64.3333 194.333 64.4667 193 64.6C191.8 64.6 190.533 64.6 189.2 64.6C188.133 64.6 187 64.6 185.8 64.6C184.6 64.6 183.4 64.5333 182.2 64.4C177.8 66.4 173.2 70.2 168.4 75.8C161.867 83.5333 156.267 91.9333 151.6 101C147.067 109.933 142.8 119 138.8 128.2C140.667 128.467 142.533 128.733 144.4 129C146.267 129.133 148.067 129.2 149.8 129.2C153.4 129.2 156.6 128.733 159.4 127.8C159.667 126.867 160.133 125.6 160.8 124C161.6 122.267 162.333 121 163 120.2C165.133 117.267 167.267 115.8 169.4 115.8C171.133 115.8 172 116.667 172 118.4C172 119.467 171.4 120.933 170.2 122.8C169.267 124 168.133 125.133 166.8 126.2C165.6 127.267 164.333 128.067 163 128.6C162.067 130.467 161.4 132.467 161 134.6C160.6 136.733 160.4 138.733 160.4 140.6C160.4 143.533 160.867 145.867 161.8 147.6C161.933 147.733 162 148 162 148.4C162 148.8 161.733 149.067 161.2 149.2C160.8 149.333 160.4 149.2 160 148.8C158.267 146.667 157.4 143.533 157.4 139.4C157.4 136.067 158 132.8 159.2 129.6C156.267 130.8 152.133 131.4 146.8 131.4C145.333 131.4 143.8 131.4 142.2 131.4C140.733 131.267 139.133 131.133 137.4 131C134.467 137.533 131.333 144.067 128 150.6C124.8 157.133 121.067 163.333 116.8 169.2C112.133 175.733 106.867 181.6 101 186.8C95.1333 192 88.4667 195.933 81 198.6C76.8667 200.067 71.9333 200.8 66.2 200.8C63.9333 200.8 61.8 200.6 59.8 200.2C57.8 199.933 56.0667 199.4 54.6 198.6Z"
        fill="#0157AC" />
</svg>