<svg width="141" height="38" viewBox="0 0 141 38" fill="none" xmlns="http://www.w3.org/2000/svg">
    <path
        d="M3.024 37.224C2.64 37.032 2.336 36.76 2.112 36.408C1.92 36.056 1.824 35.704 1.824 35.352C1.824 35 1.92 34.712 2.112 34.488C2.208 34.36 2.32 34.28 2.448 34.248C2.608 34.248 2.656 34.328 2.592 34.488C2.496 34.968 2.72 35.416 3.264 35.832C3.808 36.248 4.304 36.52 4.752 36.648C5.232 36.744 5.712 36.792 6.192 36.792C7.184 36.792 8.064 36.648 8.832 36.36C9.984 35.976 11.12 35.176 12.24 33.96C13.392 32.776 14.464 31.448 15.456 29.976C16.288 28.696 17.104 27.272 17.904 25.704C18.704 24.136 19.504 22.52 20.304 20.856C19.664 20.792 18.88 20.728 17.952 20.664C17.024 20.6 16.064 20.568 15.072 20.568C13.792 20.568 12.56 20.68 11.376 20.904C10.192 21.096 9.344 21.512 8.832 22.152C8.576 22.504 8.448 22.888 8.448 23.304C8.448 23.4 8.448 23.496 8.448 23.592C8.48 23.688 8.512 23.784 8.544 23.88C8.544 23.912 8.544 23.944 8.544 23.976C8.576 23.976 8.592 23.992 8.592 24.024C8.592 24.088 8.544 24.12 8.448 24.12C8.288 24.12 8.192 24.04 8.16 23.88C8.128 23.784 8.096 23.656 8.064 23.496C8.032 23.336 8.016 23.176 8.016 23.016C8.016 22.568 8.112 22.136 8.304 21.72C8.816 20.696 9.616 19.992 10.704 19.608C11.792 19.224 12.976 19.032 14.256 19.032C15.44 19.032 16.624 19.128 17.808 19.32C18.992 19.512 19.984 19.688 20.784 19.848C21.84 17.8 22.928 15.784 24.048 13.8C25.2 11.816 26.448 10.04 27.792 8.472C29.136 6.904 30.624 5.704 32.256 4.872C30.688 4.68 29.072 4.424 27.408 4.104C25.776 3.752 24.4 3.48 23.28 3.288C22.576 3.16 21.776 3.08 20.88 3.048C19.984 2.984 19.04 2.952 18.048 2.952C16.288 2.952 14.528 3.064 12.768 3.288C11.008 3.48 9.6 3.816 8.544 4.296C6.688 5.128 5.088 6.28 3.744 7.752C2.4 9.192 1.728 11 1.728 13.176C1.728 14.072 1.872 14.84 2.16 15.48C2.48 16.088 2.88 16.552 3.36 16.872C3.904 17.192 4.464 17.352 5.04 17.352C5.744 17.352 6.464 17.144 7.2 16.728C7.936 16.28 8.576 15.64 9.12 14.808C9.376 14.392 9.616 13.784 9.84 12.984C10.096 12.184 10.224 11.368 10.224 10.536C10.224 10.088 10.176 9.656 10.08 9.24C10.016 8.824 9.872 8.456 9.648 8.136C9.584 8.008 9.552 7.944 9.552 7.944C9.552 7.848 9.6 7.8 9.696 7.8C9.824 7.8 9.936 7.88 10.032 8.04C10.192 8.264 10.352 8.616 10.512 9.096C10.704 9.544 10.832 9.96 10.896 10.344C10.928 10.536 10.944 10.728 10.944 10.92C10.976 11.112 10.992 11.304 10.992 11.496C10.992 12.136 10.912 12.792 10.752 13.464C10.592 14.104 10.336 14.696 9.984 15.24C9.472 16.104 8.784 16.76 7.92 17.208C7.056 17.624 6.16 17.832 5.232 17.832C4.496 17.832 3.792 17.688 3.12 17.4C2.128 16.92 1.392 16.232 0.912 15.336C0.464 14.44 0.24 13.464 0.24 12.408C0.24 11.704 0.32 11 0.48 10.296C0.672 9.56 0.928 8.856 1.248 8.184C1.792 7 2.544 5.96 3.504 5.064C4.464 4.168 5.424 3.464 6.384 2.952C7.984 2.088 9.584 1.48 11.184 1.128C12.816 0.775999 14.464 0.599999 16.128 0.599999C17.504 0.599999 18.896 0.695999 20.304 0.887999C21.712 1.08 23.136 1.352 24.576 1.704C26.208 2.088 27.888 2.52 29.616 3C30.256 3.192 31.024 3.4 31.92 3.624C32.816 3.848 33.712 4.008 34.608 4.104C34.736 4.104 34.848 4.104 34.944 4.104C35.04 4.072 35.152 4.056 35.28 4.056C35.6 4.056 35.952 4.104 36.336 4.2C36.944 4.168 37.536 4.056 38.112 3.864C38.688 3.672 39.152 3.32 39.504 2.808C39.632 2.616 39.696 2.44 39.696 2.28C39.696 2.12 39.68 1.976 39.648 1.848C39.616 1.688 39.648 1.56 39.744 1.464C39.808 1.4 39.888 1.368 39.984 1.368C40.144 1.368 40.272 1.464 40.368 1.656C40.4 1.752 40.416 1.912 40.416 2.136C40.416 2.232 40.416 2.344 40.416 2.472C40.416 2.568 40.384 2.664 40.32 2.76C40.096 3.4 39.664 3.912 39.024 4.296C38.384 4.648 37.744 4.872 37.104 4.968C36.848 5 36.56 5.032 36.24 5.064C35.952 5.064 35.648 5.064 35.328 5.064C35.072 5.064 34.8 5.064 34.512 5.064C34.224 5.064 33.936 5.048 33.648 5.016C32.592 5.496 31.488 6.408 30.336 7.752C28.768 9.608 27.424 11.624 26.304 13.8C25.216 15.944 24.192 18.12 23.232 20.328C23.68 20.392 24.128 20.456 24.576 20.52C25.024 20.552 25.456 20.568 25.872 20.568C26.736 20.568 27.504 20.456 28.176 20.232C28.24 20.008 28.352 19.704 28.512 19.32C28.704 18.904 28.88 18.6 29.04 18.408C29.552 17.704 30.064 17.352 30.576 17.352C30.992 17.352 31.2 17.56 31.2 17.976C31.2 18.232 31.056 18.584 30.768 19.032C30.544 19.32 30.272 19.592 29.952 19.848C29.664 20.104 29.36 20.296 29.04 20.424C28.816 20.872 28.656 21.352 28.56 21.864C28.464 22.376 28.416 22.856 28.416 23.304C28.416 24.008 28.528 24.568 28.752 24.984C28.784 25.016 28.8 25.08 28.8 25.176C28.8 25.272 28.736 25.336 28.608 25.368C28.512 25.4 28.416 25.368 28.32 25.272C27.904 24.76 27.696 24.008 27.696 23.016C27.696 22.216 27.84 21.432 28.128 20.664C27.424 20.952 26.432 21.096 25.152 21.096C24.8 21.096 24.432 21.096 24.048 21.096C23.696 21.064 23.312 21.032 22.896 21C22.192 22.568 21.44 24.136 20.64 25.704C19.872 27.272 18.976 28.76 17.952 30.168C16.832 31.736 15.568 33.144 14.16 34.392C12.752 35.64 11.152 36.584 9.36 37.224C8.368 37.576 7.184 37.752 5.808 37.752C5.264 37.752 4.752 37.704 4.272 37.608C3.792 37.544 3.376 37.416 3.024 37.224ZM35.1806 33.288C34.1886 33.288 33.4686 33 33.0206 32.424C32.6046 31.848 32.3966 31.144 32.3966 30.312C32.3966 29.256 32.6046 28.104 33.0206 26.856C33.4686 25.608 33.9806 24.424 34.5566 23.304C35.1326 22.152 35.5966 21.256 35.9486 20.616C36.6526 19.432 37.3566 18.696 38.0606 18.408C38.7966 18.12 39.6926 17.976 40.7486 17.976C40.4286 18.072 40.0126 18.456 39.5006 19.128C38.9886 19.768 38.4446 20.568 37.8686 21.528C37.3246 22.488 36.7966 23.528 36.2846 24.648C35.8046 25.736 35.4046 26.808 35.0846 27.864C34.7966 28.888 34.6526 29.768 34.6526 30.504C34.6526 31.048 34.7486 31.496 34.9406 31.848C35.1646 32.2 35.5006 32.376 35.9486 32.376C36.3326 32.376 36.7806 32.232 37.2926 31.944C37.8046 31.624 38.2686 31.24 38.6846 30.792C40.0926 29.224 41.2286 27.512 42.0926 25.656C42.9886 23.768 43.9806 21.896 45.0686 20.04C45.7726 18.856 46.4766 18.12 47.1806 17.832C47.9166 17.544 48.8126 17.4 49.8686 17.4C49.5486 17.496 49.1166 17.896 48.5726 18.6C48.0286 19.272 47.4526 20.12 46.8446 21.144C46.2686 22.168 45.7246 23.272 45.2126 24.456C44.7006 25.608 44.2686 26.728 43.9166 27.816C43.5966 28.904 43.4366 29.832 43.4366 30.6C43.4366 31.112 43.5326 31.544 43.7246 31.896C43.9486 32.216 44.2686 32.376 44.6846 32.376C45.0686 32.376 45.5166 32.216 46.0286 31.896C46.5406 31.576 47.0046 31.208 47.4206 30.792C48.1566 29.992 48.8286 29.112 49.4366 28.152C50.0446 27.192 50.6526 26.168 51.2606 25.08C51.3566 24.952 51.4366 24.888 51.5006 24.888C51.6286 24.888 51.6926 24.984 51.6926 25.176C51.6926 25.336 51.6606 25.464 51.5966 25.56C51.0206 26.616 50.4126 27.672 49.7726 28.728C49.1326 29.784 48.3486 30.776 47.4206 31.704C46.9086 32.216 46.3006 32.648 45.5966 33C44.9246 33.32 44.2526 33.416 43.5806 33.288C42.6846 33.128 42.0446 32.776 41.6606 32.232C41.2766 31.656 41.0846 30.968 41.0846 30.168C41.0846 29.528 41.1806 28.856 41.3726 28.152C40.9886 28.76 40.5726 29.368 40.1246 29.976C39.7086 30.584 39.2286 31.16 38.6846 31.704C38.2366 32.152 37.6926 32.536 37.0526 32.856C36.4446 33.144 35.8206 33.288 35.1806 33.288ZM60.3015 32.136C59.7575 32.584 59.2135 32.904 58.6695 33.096C58.1575 33.32 57.6775 33.432 57.2295 33.432C56.4295 33.432 55.7575 33.16 55.2135 32.616C54.7015 32.04 54.4455 31.288 54.4455 30.36C54.4455 29.816 54.5735 29.16 54.8295 28.392C55.2455 27.24 55.8695 26.136 56.7015 25.08C57.5335 24.024 58.3335 22.952 59.1015 21.864C59.5815 21.224 59.8215 20.6 59.8215 19.992C59.8215 19.672 59.7255 19.4 59.5335 19.176C59.3735 18.952 59.0695 18.824 58.6215 18.792C58.3655 18.728 58.0775 18.696 57.7575 18.696C57.4375 18.696 57.1175 18.696 56.7975 18.696H55.4535C55.2615 18.696 55.0855 18.696 54.9255 18.696C54.7655 18.696 54.6215 18.68 54.4935 18.648C54.3655 19.448 54.0935 20.344 53.6775 21.336C53.2935 22.328 52.8455 23.32 52.3335 24.312C51.8215 25.304 51.3255 26.2 50.8455 27C50.7175 27.192 50.6055 27.288 50.5095 27.288C50.4135 27.288 50.3655 27.192 50.3655 27C50.3655 26.776 50.4135 26.6 50.5095 26.472C51.1815 25.16 51.8215 23.88 52.4295 22.632C53.0695 21.352 53.5015 20.024 53.7255 18.648C52.9895 18.232 52.4935 17.512 52.2375 16.488C52.2055 16.328 52.1735 16.184 52.1415 16.056C52.1415 15.896 52.1415 15.752 52.1415 15.624C52.1415 15.048 52.2535 14.568 52.4775 14.184C52.7335 13.768 53.0215 13.56 53.3415 13.56C53.7895 13.56 54.1575 13.992 54.4455 14.856C54.5095 15.08 54.5575 15.336 54.5895 15.624C54.6215 15.88 54.6375 16.136 54.6375 16.392C54.6375 16.68 54.6215 16.952 54.5895 17.208C54.5895 17.432 54.5735 17.624 54.5415 17.784C54.7655 17.848 55.0535 17.896 55.4055 17.928C55.7895 17.96 56.2055 17.976 56.6535 17.976C57.3255 17.976 58.0295 17.96 58.7655 17.928C59.5015 17.864 60.1255 17.832 60.6375 17.832C61.2455 17.832 61.6615 17.96 61.8855 18.216C62.1095 18.472 62.2215 18.792 62.2215 19.176C62.2215 19.656 62.0935 20.184 61.8375 20.76C61.6135 21.304 61.3895 21.768 61.1655 22.152C60.7495 22.92 60.3495 23.608 59.9655 24.216C59.6135 24.792 59.2135 25.416 58.7655 26.088C58.0935 27.112 57.5975 28.056 57.2775 28.92C56.9895 29.752 56.8455 30.456 56.8455 31.032C56.8455 32.024 57.2135 32.52 57.9495 32.52C58.5575 32.52 59.3415 32.088 60.3015 31.224C60.9095 30.68 61.4695 30.04 61.9815 29.304C62.5255 28.536 63.0055 27.768 63.4215 27C63.8695 26.2 64.2375 25.544 64.5255 25.032C64.5895 24.936 64.6535 24.888 64.7175 24.888C64.8455 24.888 64.9095 25.016 64.9095 25.272C64.9095 25.464 64.8615 25.64 64.7655 25.8C64.2215 26.792 63.5975 27.88 62.8935 29.064C62.1895 30.248 61.3255 31.272 60.3015 32.136ZM73.0871 33.288C72.1591 33.288 71.4231 33 70.8791 32.424C70.3671 31.848 70.1111 31.128 70.1111 30.264C70.1111 29.848 70.1911 29.368 70.3511 28.824C70.7991 27.416 71.5031 26.024 72.4631 24.648C73.4551 23.24 74.2711 21.848 74.9111 20.472C75.1351 20.024 75.2471 19.624 75.2471 19.272C75.2471 18.92 75.1351 18.664 74.9111 18.504C74.7191 18.312 74.4791 18.216 74.1911 18.216C73.7751 18.216 73.2471 18.392 72.6071 18.744C71.9991 19.064 71.2951 19.688 70.4951 20.616C70.0151 21.192 69.4711 21.896 68.8631 22.728C68.2551 23.56 67.7591 24.312 67.3751 24.984C66.7351 26.072 66.1591 27.176 65.6471 28.296C65.1351 29.384 64.6871 30.392 64.3031 31.32C63.9831 32.056 63.5991 32.536 63.1511 32.76C62.7031 32.952 62.2711 33.032 61.8551 33C61.4391 32.968 61.1191 32.968 60.8951 33C61.7911 31.24 62.6711 29.384 63.5351 27.432C64.3991 25.48 65.1351 23.528 65.7431 21.576C66.0311 20.68 66.2711 19.816 66.4631 18.984C66.6551 18.12 66.7351 17.56 66.7031 17.304V17.208C66.7031 16.952 66.8311 16.888 67.0871 17.016C67.5031 17.24 67.7911 17.576 67.9511 18.024C68.1111 18.44 68.1911 18.92 68.1911 19.464C68.1911 20.072 68.1111 20.728 67.9511 21.432C67.7911 22.104 67.5991 22.712 67.3751 23.256C67.7911 22.68 68.2391 22.104 68.7191 21.528C69.1991 20.92 69.7271 20.344 70.3031 19.8C70.9751 19.128 71.6951 18.552 72.4631 18.072C73.2311 17.56 74.0631 17.304 74.9591 17.304C75.8231 17.304 76.4471 17.496 76.8311 17.88C77.2471 18.264 77.4551 18.776 77.4551 19.416C77.4551 20.088 77.2631 20.856 76.8791 21.72C76.4631 22.712 75.9511 23.704 75.3431 24.696C74.7671 25.688 74.2391 26.648 73.7591 27.576C73.6631 27.768 73.5031 28.072 73.2791 28.488C73.0871 28.872 72.9111 29.304 72.7511 29.784C72.6871 30.008 72.6231 30.248 72.5591 30.504C72.4951 30.728 72.4631 30.968 72.4631 31.224C72.4631 31.544 72.5271 31.848 72.6551 32.136C72.8151 32.392 73.1031 32.52 73.5191 32.52C74.0631 32.52 74.5751 32.344 75.0551 31.992C75.5671 31.608 75.9991 31.208 76.3511 30.792C77.0871 29.992 77.7591 29.112 78.3671 28.152C79.0071 27.16 79.6311 26.12 80.2391 25.032C80.3351 24.904 80.3991 24.84 80.4311 24.84C80.5591 24.84 80.6231 24.984 80.6231 25.272C80.6231 25.464 80.5911 25.608 80.5271 25.704C79.9511 26.76 79.3431 27.8 78.7031 28.824C78.0631 29.816 77.2791 30.776 76.3511 31.704C75.9351 32.12 75.4551 32.488 74.9111 32.808C74.3671 33.128 73.7591 33.288 73.0871 33.288ZM81.2554 33.288C80.3594 33.288 79.7034 33 79.2874 32.424C78.8714 31.816 78.6634 31.08 78.6634 30.216C78.6634 29.96 78.6794 29.704 78.7114 29.448C78.7754 29.16 78.8394 28.872 78.9034 28.584C79.2554 27.304 79.7994 25.88 80.5354 24.312C81.3034 22.712 82.0394 21.288 82.7434 20.04C83.1594 19.336 83.5434 18.84 83.8954 18.552C84.2474 18.232 84.6314 18.008 85.0474 17.88C85.4634 17.72 85.9594 17.544 86.5354 17.352C86.6954 17.288 86.8554 17.24 87.0154 17.208C87.1754 17.176 87.3514 17.144 87.5434 17.112C86.9034 17.752 86.2474 18.52 85.5754 19.416C84.9354 20.312 84.2314 21.544 83.4634 23.112C83.0474 23.944 82.6314 24.872 82.2154 25.896C81.8314 26.92 81.4954 27.88 81.2074 28.776C80.9194 29.672 80.7594 30.376 80.7274 30.888C80.6954 31.496 80.7754 31.928 80.9674 32.184C81.1594 32.44 81.4154 32.568 81.7354 32.568C82.2794 32.568 82.7914 32.376 83.2714 31.992C83.7834 31.608 84.2314 31.208 84.6154 30.792C85.3194 29.992 85.9754 29.112 86.5834 28.152C87.2234 27.192 87.8474 26.168 88.4554 25.08C88.5514 24.952 88.6314 24.888 88.6954 24.888C88.8234 24.888 88.8874 24.984 88.8874 25.176C88.8874 25.336 88.8554 25.464 88.7914 25.56C88.2154 26.616 87.6074 27.672 86.9674 28.728C86.3274 29.784 85.5434 30.776 84.6154 31.704C84.1994 32.12 83.7034 32.488 83.1274 32.808C82.5834 33.128 81.9594 33.288 81.2554 33.288ZM87.1114 14.424C86.7594 14.424 86.4554 14.296 86.1994 14.04C85.9754 13.784 85.8634 13.48 85.8634 13.128C85.8634 12.68 86.0394 12.28 86.3914 11.928C86.7754 11.576 87.1914 11.368 87.6394 11.304C87.9914 11.304 88.2794 11.432 88.5034 11.688C88.7594 11.912 88.8874 12.216 88.8874 12.6C88.8874 13.016 88.7114 13.432 88.3594 13.848C88.0074 14.232 87.5914 14.424 87.1114 14.424ZM90.0814 33.336C89.2814 33.336 88.5614 33.112 87.9214 32.664C87.3134 32.184 87.0094 31.416 87.0094 30.36C87.0094 29.24 87.2814 28.008 87.8254 26.664C88.3694 25.32 88.8814 24.12 89.3614 23.064C89.6174 22.552 89.9534 21.864 90.3694 21C90.8174 20.104 91.2974 19.224 91.8094 18.36H89.5534C89.4574 18.36 89.4094 18.28 89.4094 18.12C89.4094 17.992 89.4574 17.864 89.5534 17.736C89.6494 17.576 89.7614 17.496 89.8894 17.496C90.7854 17.496 91.4574 17.416 91.9054 17.256C92.3534 17.096 92.7374 16.872 93.0574 16.584C93.5694 16.136 94.0654 15.56 94.5454 14.856C95.0574 14.152 95.5534 13.544 96.0334 13.032C96.3854 12.584 96.8174 12.248 97.3294 12.024C97.8734 11.8 98.2254 11.72 98.3854 11.784C98.2254 12.008 97.9694 12.392 97.6174 12.936C97.2654 13.48 96.8974 14.072 96.5134 14.712C96.1294 15.352 95.7774 15.944 95.4574 16.488C95.1374 17.032 94.9294 17.4 94.8334 17.592H98.0014C98.0974 17.592 98.1454 17.624 98.1454 17.688C98.1454 17.816 98.0654 17.96 97.9054 18.12C97.7774 18.28 97.6494 18.36 97.5214 18.36H94.4014C93.8254 19.352 93.1374 20.648 92.3374 22.248C91.5694 23.816 90.8814 25.336 90.2734 26.808C90.1454 27.096 89.9214 27.672 89.6014 28.536C89.3134 29.4 89.1694 30.2 89.1694 30.936C89.1694 31.416 89.2654 31.816 89.4574 32.136C89.6814 32.456 90.0494 32.616 90.5614 32.616C91.1054 32.616 91.6974 32.424 92.3374 32.04C92.9774 31.624 93.4734 31.208 93.8254 30.792C94.5614 29.992 95.2334 29.112 95.8414 28.152C96.4494 27.192 97.0574 26.168 97.6654 25.08C97.7614 24.952 97.8574 24.888 97.9534 24.888C98.0814 24.888 98.1454 24.984 98.1454 25.176C98.1454 25.336 98.1134 25.464 98.0494 25.56C97.4734 26.616 96.8494 27.672 96.1774 28.728C95.5374 29.784 94.7534 30.776 93.8254 31.704C93.4094 32.12 92.8494 32.504 92.1454 32.856C91.4414 33.176 90.7534 33.336 90.0814 33.336ZM98.8838 33.288C97.8918 33.288 97.1718 33 96.7238 32.424C96.3078 31.848 96.0998 31.144 96.0998 30.312C96.0998 29.256 96.3078 28.104 96.7238 26.856C97.1718 25.608 97.6838 24.424 98.2598 23.304C98.8358 22.152 99.2998 21.256 99.6518 20.616C100.356 19.432 101.06 18.696 101.764 18.408C102.5 18.12 103.396 17.976 104.452 17.976C104.132 18.072 103.716 18.456 103.204 19.128C102.692 19.768 102.148 20.568 101.572 21.528C101.028 22.488 100.5 23.528 99.9878 24.648C99.5078 25.736 99.1078 26.808 98.7878 27.864C98.4998 28.888 98.3558 29.768 98.3558 30.504C98.3558 31.048 98.4518 31.496 98.6438 31.848C98.8678 32.2 99.2038 32.376 99.6518 32.376C100.036 32.376 100.484 32.232 100.996 31.944C101.508 31.624 101.972 31.24 102.388 30.792C103.796 29.224 104.932 27.512 105.796 25.656C106.692 23.768 107.684 21.896 108.772 20.04C109.476 18.856 110.18 18.12 110.884 17.832C111.62 17.544 112.516 17.4 113.572 17.4C113.252 17.496 112.82 17.896 112.276 18.6C111.732 19.272 111.156 20.12 110.548 21.144C109.972 22.168 109.428 23.272 108.916 24.456C108.404 25.608 107.972 26.728 107.62 27.816C107.3 28.904 107.14 29.832 107.14 30.6C107.14 31.112 107.236 31.544 107.428 31.896C107.652 32.216 107.972 32.376 108.388 32.376C108.772 32.376 109.22 32.216 109.732 31.896C110.244 31.576 110.708 31.208 111.124 30.792C111.86 29.992 112.532 29.112 113.14 28.152C113.748 27.192 114.356 26.168 114.964 25.08C115.06 24.952 115.14 24.888 115.204 24.888C115.332 24.888 115.396 24.984 115.396 25.176C115.396 25.336 115.364 25.464 115.3 25.56C114.724 26.616 114.116 27.672 113.476 28.728C112.836 29.784 112.052 30.776 111.124 31.704C110.612 32.216 110.004 32.648 109.3 33C108.628 33.32 107.956 33.416 107.284 33.288C106.388 33.128 105.748 32.776 105.364 32.232C104.98 31.656 104.788 30.968 104.788 30.168C104.788 29.528 104.884 28.856 105.076 28.152C104.692 28.76 104.276 29.368 103.828 29.976C103.412 30.584 102.932 31.16 102.388 31.704C101.94 32.152 101.396 32.536 100.756 32.856C100.148 33.144 99.5238 33.288 98.8838 33.288ZM124.005 32.136C123.461 32.584 122.917 32.904 122.373 33.096C121.861 33.32 121.381 33.432 120.933 33.432C120.133 33.432 119.461 33.16 118.917 32.616C118.405 32.04 118.149 31.288 118.149 30.36C118.149 29.816 118.277 29.16 118.533 28.392C118.949 27.24 119.573 26.136 120.405 25.08C121.237 24.024 122.037 22.952 122.805 21.864C123.285 21.224 123.525 20.6 123.525 19.992C123.525 19.672 123.429 19.4 123.237 19.176C123.077 18.952 122.773 18.824 122.325 18.792C122.069 18.728 121.781 18.696 121.461 18.696C121.141 18.696 120.821 18.696 120.501 18.696H119.157C118.965 18.696 118.789 18.696 118.629 18.696C118.469 18.696 118.325 18.68 118.197 18.648C118.069 19.448 117.797 20.344 117.381 21.336C116.997 22.328 116.549 23.32 116.037 24.312C115.525 25.304 115.029 26.2 114.549 27C114.421 27.192 114.309 27.288 114.213 27.288C114.117 27.288 114.069 27.192 114.069 27C114.069 26.776 114.117 26.6 114.213 26.472C114.885 25.16 115.525 23.88 116.133 22.632C116.773 21.352 117.205 20.024 117.429 18.648C116.693 18.232 116.197 17.512 115.941 16.488C115.909 16.328 115.877 16.184 115.845 16.056C115.845 15.896 115.845 15.752 115.845 15.624C115.845 15.048 115.957 14.568 116.181 14.184C116.437 13.768 116.725 13.56 117.045 13.56C117.493 13.56 117.861 13.992 118.149 14.856C118.213 15.08 118.261 15.336 118.293 15.624C118.325 15.88 118.341 16.136 118.341 16.392C118.341 16.68 118.325 16.952 118.293 17.208C118.293 17.432 118.277 17.624 118.245 17.784C118.469 17.848 118.757 17.896 119.109 17.928C119.493 17.96 119.909 17.976 120.357 17.976C121.029 17.976 121.733 17.96 122.469 17.928C123.205 17.864 123.829 17.832 124.341 17.832C124.949 17.832 125.365 17.96 125.589 18.216C125.813 18.472 125.925 18.792 125.925 19.176C125.925 19.656 125.797 20.184 125.541 20.76C125.317 21.304 125.093 21.768 124.869 22.152C124.453 22.92 124.053 23.608 123.669 24.216C123.317 24.792 122.917 25.416 122.469 26.088C121.797 27.112 121.301 28.056 120.981 28.92C120.693 29.752 120.549 30.456 120.549 31.032C120.549 32.024 120.917 32.52 121.653 32.52C122.261 32.52 123.045 32.088 124.005 31.224C124.613 30.68 125.173 30.04 125.685 29.304C126.229 28.536 126.709 27.768 127.125 27C127.573 26.2 127.941 25.544 128.229 25.032C128.293 24.936 128.357 24.888 128.421 24.888C128.549 24.888 128.613 25.016 128.613 25.272C128.613 25.464 128.565 25.64 128.469 25.8C127.925 26.792 127.301 27.88 126.597 29.064C125.893 30.248 125.029 31.272 124.005 32.136ZM132.566 33.384C130.71 33.384 129.398 32.904 128.63 31.944C128.246 31.528 127.974 31.032 127.814 30.456C127.654 29.88 127.574 29.288 127.574 28.68C127.574 27.912 127.67 27.144 127.862 26.376C128.054 25.576 128.294 24.84 128.582 24.168C129.03 23.112 129.622 22.056 130.358 21C131.094 19.912 131.974 19 132.998 18.264C134.054 17.528 135.206 17.16 136.454 17.16C137.286 17.16 137.942 17.368 138.422 17.784C138.902 18.2 139.142 18.84 139.142 19.704C139.142 20.696 138.838 21.704 138.23 22.728C137.622 23.72 136.854 24.552 135.926 25.224C134.998 25.896 134.038 26.232 133.046 26.232C132.15 26.232 131.366 25.912 130.694 25.272C130.502 25.784 130.342 26.36 130.214 27C130.086 27.608 130.022 28.232 130.022 28.872C130.022 29.864 130.214 30.728 130.598 31.464C131.014 32.2 131.75 32.568 132.806 32.568C133.574 32.568 134.31 32.376 135.014 31.992C135.75 31.576 136.406 31.08 136.982 30.504C137.622 29.832 138.23 29.112 138.806 28.344C139.382 27.576 139.942 26.68 140.486 25.656C140.55 25.56 140.598 25.512 140.63 25.512C140.758 25.512 140.822 25.656 140.822 25.944C140.822 26.136 140.758 26.344 140.63 26.568C140.15 27.432 139.59 28.312 138.95 29.208C138.31 30.072 137.654 30.824 136.982 31.464C136.374 32.04 135.718 32.504 135.014 32.856C134.31 33.208 133.494 33.384 132.566 33.384ZM130.934 24.552C131.158 24.872 131.414 25.112 131.702 25.272C132.022 25.4 132.342 25.464 132.662 25.464C133.43 25.464 134.23 25.176 135.062 24.6C135.894 23.992 136.566 23.288 137.078 22.488C137.302 22.136 137.494 21.672 137.654 21.096C137.846 20.52 137.942 19.976 137.942 19.464C137.942 19.016 137.846 18.632 137.654 18.312C137.494 17.96 137.158 17.784 136.646 17.784C136.07 17.784 135.382 18.136 134.582 18.84C133.814 19.544 133.078 20.456 132.374 21.576C132.15 21.96 131.894 22.408 131.606 22.92C131.35 23.432 131.126 23.976 130.934 24.552Z"
        fill="#0157AC" />
</svg>