<svg width="34" height="32" viewBox="0 0 34 32" fill="none" xmlns="http://www.w3.org/2000/svg">
    <g opacity="0.5">
        <path
            d="M24.2922 24C25.0262 24 25.7301 24.2809 26.2491 24.781C26.7681 25.2811 27.0597 25.9594 27.0597 26.6666C27.0597 27.3739 26.7681 28.0521 26.2491 28.5522C25.7301 29.0523 25.0262 29.3333 24.2922 29.3333C23.5582 29.3333 22.8543 29.0523 22.3353 28.5522C21.8163 28.0521 21.5247 27.3739 21.5247 26.6666C21.5247 25.1866 22.7562 24 24.2922 24ZM2.15234 2.66663H6.67718L7.97789 5.33329H28.4434C28.8104 5.33329 29.1624 5.47377 29.4219 5.72382C29.6814 5.97387 29.8272 6.313 29.8272 6.66663C29.8272 6.89329 29.758 7.11996 29.6611 7.33329L24.7073 15.96C24.2368 16.7733 23.3236 17.3333 22.2858 17.3333H11.9769L10.7315 19.5066L10.69 19.6666C10.69 19.755 10.7265 19.8398 10.7913 19.9023C10.8562 19.9648 10.9442 20 11.036 20H27.0597V22.6666H10.4548C9.72081 22.6666 9.01689 22.3857 8.49788 21.8856C7.97888 21.3855 7.68731 20.7072 7.68731 20C7.68731 19.5333 7.81184 19.0933 8.01941 18.72L9.90129 15.4533L4.91983 5.33329H2.15234V2.66663ZM10.4548 24C11.1888 24 11.8927 24.2809 12.4117 24.781C12.9307 25.2811 13.2223 25.9594 13.2223 26.6666C13.2223 27.3739 12.9307 28.0521 12.4117 28.5522C11.8927 29.0523 11.1888 29.3333 10.4548 29.3333C9.72081 29.3333 9.01689 29.0523 8.49788 28.5522C7.97888 28.0521 7.68731 27.3739 7.68731 26.6666C7.68731 25.1866 8.91884 24 10.4548 24ZM22.9085 14.6666L26.7553 7.99996H9.26477L12.5304 14.6666H22.9085Z"
            fill="black" />
    </g>
</svg>