<svg width="34" height="32" viewBox="0 0 34 32" fill="none" xmlns="http://www.w3.org/2000/svg">
    <g opacity="0.5">
        <path
            d="M3.48633 16C3.48633 23.364 9.68134 29.3333 17.3237 29.3333C24.9661 29.3333 31.1611 23.364 31.1611 16C31.1611 8.63596 24.9661 2.66663 17.3237 2.66663C9.68134 2.66663 3.48633 8.63596 3.48633 16Z"
            stroke="black" stroke-width="1.5" stroke-linecap="round" stroke-linejoin="round" />
        <path
            d="M18.7078 2.73328C18.7078 2.73328 22.859 7.99994 22.859 15.9999C22.859 23.9999 18.7078 29.2666 18.7078 29.2666M15.9403 29.2666C15.9403 29.2666 11.7891 23.9999 11.7891 15.9999C11.7891 7.99994 15.9403 2.73328 15.9403 2.73328M4.3584 20.6666H30.2897M4.3584 11.3333H30.2897"
            stroke="black" stroke-width="1.5" stroke-linecap="round" stroke-linejoin="round" />
    </g>
</svg>